cl__1 = 1;
Point(1) = {-10, -10, -10, 1};
Point(2) = {10, -10, -10, 1};
Point(3) = {-10, 10, -10, 1};
Point(4) = {10, 10, -10, 1};
Point(5) = {-10, -10, 10, 1};
Point(6) = {10, -10, 10, 1};
Point(7) = {-10, 10, 10, 1};
Point(8) = {10, 10, 10, 1};
Point(17) = {0, -10, 0, 1};
Point(18) = {5, -10, 0, 1};
Point(19) = {-5, -10, 0, 1};
Point(20) = {0, -10, 5, 1};
Point(21) = {0, -10, -5, 1};
Point(22) = {0, 10, 0, 1};
Point(23) = {5, 10, 0, 1};
Point(24) = {-5, 10, 0, 1};
Point(25) = {0, 10, 5, 1};
Point(26) = {0, 10, -5, 1};
Line(1) = {7, 3};
Line(2) = {3, 3};
Line(3) = {3, 1};
Line(4) = {1, 5};
Line(5) = {5, 7};
Line(6) = {7, 8};
Line(7) = {8, 4};
Line(8) = {4, 3};
Line(9) = {8, 6};
Line(10) = {6, 5};
Line(11) = {1, 2};
Line(12) = {2, 6};
Line(13) = {2, 4};
Circle(49) = {20, 17, 19};
Circle(50) = {19, 17, 21};
Circle(51) = {21, 17, 18};
Circle(52) = {18, 17, 20};
Circle(53) = {25, 22, 24};
Circle(54) = {24, 22, 26};
Circle(55) = {26, 22, 23};
Circle(56) = {23, 22, 25};
Line(57) = {20, 25};
Line(58) = {19, 24};
Line(59) = {21, 26};
Line(60) = {18, 23};
Line Loop(61) = {3, 4, 5, 1};
Plane Surface(61) = {61};
Line Loop(62) = {6, 9, 10, 5};
Plane Surface(62) = {62};
Line Loop(63) = {7, -13, 12, -9};
Plane Surface(63) = {63};
Line Loop(64) = {8, 3, 11, 13};
Plane Surface(64) = {64};
Line Loop(66) = {12, 10, -4, 11, -49, -52, -51, -50};
Plane Surface(66) = {66};
Line Loop(68) = {1, -8, -7, -6, -55, -54, -53, -56};
Plane Surface(68) = {68};
Line Loop(70) = {49, 58, -53, -57};
Ruled Surface(70) = {70};
Line Loop(72) = {58, 54, -59, -50};
Ruled Surface(72) = {72};
Line Loop(74) = {59, 55, -60, -51};
Ruled Surface(74) = {74};
Line Loop(76) = {60, 56, -57, -52};
Ruled Surface(76) = {76};
Surface Loop(78) = {66, 63, 68, 61, 64, 62, 74, 72, 70, 76};
Volume(78) = {78};
